<svg xmlns="http://www.w3.org/2000/svg" xmlns:xlink="http://www.w3.org/1999/xlink" width="1200" zoomAndPan="magnify" viewBox="0 0 900 899.99999" height="1200" preserveAspectRatio="xMidYMid meet" version="1.0"><defs><clipPath id="6307a870fe"><path d="M 260.683594 302.390625 L 655.917969 302.390625 L 655.917969 600.578125 L 260.683594 600.578125 Z M 260.683594 302.390625 " clip-rule="nonzero"/></clipPath><clipPath id="412328a6cf"><path d="M 450 267.660156 L 655.917969 267.660156 L 655.917969 578.824219 L 450 578.824219 Z M 450 267.660156 " clip-rule="nonzero"/></clipPath><clipPath id="b3670dff84"><path d="M 252.382812 336.363281 L 458.300781 336.363281 L 458.300781 647.527344 L 252.382812 647.527344 Z M 252.382812 336.363281 " clip-rule="nonzero"/></clipPath><clipPath id="45aa8f1619"><path d="M 309.523438 180.632812 L 871.113281 180.632812 L 871.113281 719.242188 L 309.523438 719.242188 Z M 309.523438 180.632812 " clip-rule="nonzero"/></clipPath><clipPath id="bf2105cf3f"><path d="M 28.878906 180.742188 L 590.472656 180.742188 L 590.472656 719.351562 L 28.878906 719.351562 Z M 28.878906 180.742188 " clip-rule="nonzero"/></clipPath></defs><g clip-path="url(#6307a870fe)"><path fill="#0d66eb" d="M 260.683594 302.390625 L 655.550781 302.390625 L 655.550781 600.578125 L 260.683594 600.578125 Z M 260.683594 302.390625 " fill-opacity="1" fill-rule="nonzero"/></g><g clip-path="url(#412328a6cf)"><path fill="#0d66eb" d="M 450 267.660156 L 655.917969 267.660156 L 655.917969 578.953125 L 450 578.953125 Z M 450 267.660156 " fill-opacity="1" fill-rule="nonzero"/></g><g clip-path="url(#b3670dff84)"><path fill="#0d66eb" d="M 252.382812 336.363281 L 458.300781 336.363281 L 458.300781 647.652344 L 252.382812 647.652344 Z M 252.382812 336.363281 " fill-opacity="1" fill-rule="nonzero"/></g><g clip-path="url(#45aa8f1619)"><path fill="#000000" d="M 717.507812 719.054688 L 677.785156 618.941406 L 508.949219 618.941406 L 463.484375 719.054688 L 309.496094 719.054688 L 417.582031 481.066406 L 622.957031 480.914062 L 504.03125 180.761719 L 657.582031 180.761719 L 871.054688 719.054688 Z M 717.507812 719.054688 " fill-opacity="1" fill-rule="nonzero"/></g><g clip-path="url(#bf2105cf3f)"><path fill="#000000" d="M 182.488281 180.933594 L 222.210938 281.042969 L 391.042969 281.042969 L 436.507812 180.933594 L 590.496094 180.933594 L 482.410156 418.917969 L 277.039062 419.070312 L 395.964844 719.226562 L 242.410156 719.226562 L 28.9375 180.933594 Z M 182.488281 180.933594 " fill-opacity="1" fill-rule="nonzero"/></g></svg>